<svg width="28" height="21" viewBox="0 0 28 21" fill="none" xmlns="http://www.w3.org/2000/svg">
<path d="M5.77395 20.5L0 10.5001L5.77393 0.5H15.284L13.2461 4.02983H7.81183L5.09467 8.73605H10.5291L8.49123 12.2656H5.09479L7.81182 16.9717H13.2465L15.2843 20.5H5.77395Z" fill="#F2F2F2"/>
<path d="M10.5288 8.73605L8.8308 5.79455L12.2272 5.79455L10.5288 8.73605Z" fill="#F2F2F2"/>
<path d="M16.6423 12.2631L21.3972 20.4999H17.3218L14.6046 15.7953L16.6423 12.2631Z" fill="#F2F2F2"/>
<path d="M17.3219 0.500061L21.3975 0.50007L12.9065 15.2072H8.83087L17.3219 0.500061Z" fill="#F2F2F2"/>
<path d="M22.4164 18.7365L20.3805 15.2046L23.0958 10.5005L20.3785 5.79552L22.4165 2.26453L27.1715 10.5006L22.4164 18.7365Z" fill="#F2F2F2"/>
</svg>
