<svg width="250" height="41" viewBox="0 0 250 41" fill="none" xmlns="http://www.w3.org/2000/svg">
<path d="M88.2446 18.2999H72.5031V13.4012H88.2446V18.2999ZM90.488 29.2565H72.5031C71.8128 29.2565 71.0587 29.1381 70.2406 28.9013C69.4225 28.6644 68.662 28.278 67.9589 27.742C67.2687 27.1936 66.6871 26.4893 66.2141 25.6292C65.7539 24.7567 65.5239 23.6909 65.5239 22.432V4.89391C65.5239 4.55736 65.5878 4.23951 65.7156 3.94035C65.8434 3.64119 66.016 3.37943 66.2333 3.15506C66.4634 2.9307 66.7318 2.75619 67.0386 2.63154C67.3454 2.50689 67.6777 2.44457 68.0356 2.44457H90.488V7.30586H70.509V22.432C70.509 23.0677 70.6816 23.5538 71.0267 23.8904C71.3718 24.2269 71.8767 24.3952 72.5414 24.3952H90.488V29.2565Z" fill="white"/>
<path d="M118.443 9.04471L109.489 18.5803L119.574 29.2565H112.71L106.076 22.2076L99.4421 29.2565H92.5587L102.625 18.5429L93.7091 9.04471H100.535L106.038 14.897L111.579 9.04471H118.443Z" fill="white"/>
<path d="M145.037 29.2565H140.052V18.0381C140.052 17.4024 139.937 16.8353 139.707 16.3367C139.489 15.8256 139.189 15.3893 138.806 15.0279C138.422 14.6664 137.968 14.3921 137.444 14.2052C136.933 14.0057 136.377 13.906 135.776 13.906H127.052V29.2565H122.067V11.4567C122.067 11.1201 122.131 10.8085 122.259 10.5218C122.387 10.2226 122.565 9.96712 122.796 9.75521C123.026 9.53084 123.294 9.35634 123.601 9.23169C123.908 9.10704 124.234 9.04471 124.579 9.04471H135.814C136.441 9.04471 137.099 9.11327 137.789 9.25039C138.492 9.3875 139.183 9.61187 139.86 9.92349C140.55 10.2226 141.202 10.6091 141.816 11.0827C142.442 11.5439 142.992 12.1111 143.465 12.7842C143.95 13.4448 144.334 14.2114 144.615 15.0839C144.896 15.9565 145.037 16.9412 145.037 18.0381V29.2565Z" fill="white"/>
<path d="M171.957 22.432C171.957 23.2671 171.848 24.0213 171.631 24.6944C171.414 25.355 171.126 25.9408 170.768 26.4519C170.41 26.9505 169.995 27.3805 169.522 27.742C169.049 28.091 168.55 28.3777 168.026 28.6021C167.515 28.8265 166.991 28.9947 166.454 29.1069C165.93 29.2066 165.431 29.2565 164.958 29.2565H155.966C155.276 29.2565 154.522 29.1381 153.703 28.9013C152.885 28.6644 152.125 28.278 151.422 27.742C150.732 27.1936 150.15 26.4893 149.677 25.6292C149.217 24.7567 148.987 23.6909 148.987 22.432V15.8505C148.987 14.604 149.217 13.5508 149.677 12.6907C150.15 11.8181 150.732 11.1139 151.422 10.5779C152.125 10.0294 152.885 9.6368 153.703 9.39996C154.522 9.16313 155.276 9.04471 155.966 9.04471H164.958C166.237 9.04471 167.323 9.26908 168.218 9.71782C169.113 10.1666 169.835 10.7337 170.385 11.4193C170.934 12.0924 171.33 12.8278 171.573 13.6256C171.829 14.4233 171.957 15.165 171.957 15.8505V22.432ZM166.972 15.8879C166.972 15.2148 166.799 14.7162 166.454 14.3921C166.109 14.0681 165.61 13.906 164.958 13.906H156.004C155.34 13.906 154.835 14.0743 154.49 14.4108C154.144 14.7349 153.972 15.2148 153.972 15.8505V22.432C153.972 23.0677 154.144 23.5538 154.49 23.8904C154.835 24.2269 155.34 24.3952 156.004 24.3952H164.958C165.636 24.3952 166.141 24.2269 166.473 23.8904C166.805 23.5538 166.972 23.0677 166.972 22.432V15.8879Z" fill="white"/>
<path d="M198.953 22.432C198.953 23.2671 198.845 24.0213 198.627 24.6944C198.41 25.355 198.122 25.9408 197.765 26.4519C197.407 26.9505 196.991 27.3805 196.518 27.742C196.045 28.091 195.547 28.3777 195.023 28.6021C194.511 28.8265 193.987 28.9947 193.45 29.1069C192.926 29.2066 192.428 29.2565 191.955 29.2565H182.962C182.106 29.2565 181.339 29.1505 180.662 28.9386C179.984 28.7267 179.383 28.4463 178.859 28.0973C178.348 27.7358 177.907 27.3244 177.536 26.8632C177.178 26.402 176.884 25.9221 176.654 25.4236C176.424 24.9125 176.252 24.4014 176.137 23.8904C176.034 23.3668 175.983 22.8807 175.983 22.432V15.8505C175.983 14.604 176.213 13.5508 176.674 12.6907C177.146 11.8181 177.728 11.1139 178.418 10.5779C179.121 10.0294 179.882 9.6368 180.7 9.39996C181.518 9.16313 182.272 9.04471 182.962 9.04471H191.955V13.906H183.001C182.336 13.906 181.831 14.0743 181.486 14.4108C181.141 14.7349 180.968 15.2148 180.968 15.8505V22.3946C180.968 23.0552 181.135 23.5538 181.467 23.8904C181.812 24.2269 182.311 24.3952 182.962 24.3952H191.955C192.632 24.3952 193.137 24.2269 193.47 23.8904C193.802 23.5538 193.968 23.0677 193.968 22.432V0.500046H198.953V22.432Z" fill="white"/>
<path d="M226.007 15.7383C226.007 16.4115 225.886 17.1407 225.643 17.9259C225.4 18.6988 225.004 19.4217 224.454 20.0948C223.917 20.7555 223.208 21.3101 222.326 21.7589C221.457 22.2076 220.396 22.432 219.143 22.432H210.151V17.8138H219.143C219.821 17.8138 220.345 17.6143 220.715 17.2154C221.086 16.8041 221.271 16.2993 221.271 15.701C221.271 15.0652 221.061 14.5667 220.639 14.2052C220.23 13.8437 219.731 13.6629 219.143 13.6629H210.151C209.473 13.6629 208.949 13.8686 208.578 14.28C208.208 14.6788 208.022 15.1774 208.022 15.7757V22.5629C208.022 23.211 208.227 23.7159 208.636 24.0773C209.058 24.4388 209.576 24.6196 210.189 24.6196H219.143V29.2565H210.151C209.46 29.2565 208.713 29.1381 207.907 28.9013C207.115 28.6644 206.374 28.2842 205.683 27.7607C205.006 27.2247 204.437 26.5329 203.977 25.6853C203.517 24.8252 203.287 23.7844 203.287 22.5629V15.7383C203.287 15.0652 203.408 14.3423 203.651 13.5695C203.894 12.7842 204.284 12.0612 204.82 11.4006C205.37 10.7275 206.08 10.1666 206.949 9.71782C207.831 9.26908 208.898 9.04471 210.151 9.04471H219.143C219.833 9.04471 220.575 9.16313 221.367 9.39996C222.173 9.6368 222.914 10.0232 223.591 10.5592C224.282 11.0827 224.857 11.7745 225.317 12.6346C225.777 13.4822 226.007 14.5168 226.007 15.7383Z" fill="white"/>
<path d="M249.399 22.432C249.399 23.2671 249.291 24.0213 249.073 24.6944C248.856 25.355 248.568 25.9408 248.21 26.4519C247.853 26.9505 247.437 27.3805 246.964 27.742C246.491 28.091 245.993 28.3777 245.469 28.6021C244.957 28.8265 244.433 28.9947 243.896 29.1069C243.372 29.2066 242.874 29.2565 242.401 29.2565H228.903V24.3952H242.362C243.04 24.3952 243.551 24.2269 243.896 23.8904C244.241 23.5538 244.414 23.0677 244.414 22.432C244.35 21.1356 243.679 20.4875 242.401 20.4875H234.674C233.575 20.4875 232.641 20.3005 231.874 19.9265C231.108 19.5526 230.481 19.0852 229.995 18.5242C229.522 17.9633 229.177 17.3588 228.96 16.7106C228.756 16.0624 228.653 15.4579 228.653 14.897C228.653 13.8125 228.851 12.9026 229.248 12.1672C229.644 11.4193 230.142 10.8147 230.743 10.3535C231.344 9.89232 231.996 9.56201 232.699 9.36257C233.402 9.15067 234.06 9.04471 234.674 9.04471H246.926V13.906H234.712C234.457 13.906 234.252 13.9372 234.099 13.9995C233.958 14.0494 233.849 14.1241 233.773 14.2239C233.709 14.3111 233.67 14.4108 233.658 14.523C233.645 14.6227 233.638 14.7225 233.638 14.8222C233.651 15.0216 233.69 15.1774 233.753 15.2896C233.817 15.4018 233.894 15.4828 233.984 15.5327C234.086 15.5825 234.194 15.6137 234.31 15.6262C234.437 15.6262 234.559 15.6262 234.674 15.6262H242.401C243.679 15.6262 244.766 15.8505 245.66 16.2993C246.555 16.748 247.277 17.3152 247.827 18.0007C248.377 18.6738 248.773 19.4093 249.016 20.207C249.271 21.0048 249.399 21.7464 249.399 22.432Z" fill="white"/>
<path d="M67.5209 38.5021C67.1476 38.5021 66.7774 38.4681 66.4104 38.3999C66.0495 38.338 65.754 38.2513 65.5238 38.1398V37.2849C66.1211 37.5637 66.765 37.703 67.4556 37.703C68.4261 37.703 68.9114 37.3778 68.9114 36.7274C68.9114 36.5044 68.8585 36.3247 68.7527 36.1884C68.647 36.0522 68.4945 35.9345 68.2955 35.8354C68.0964 35.73 67.7729 35.5876 67.3249 35.4079C66.709 35.1601 66.2642 34.8876 65.9904 34.5902C65.7167 34.2929 65.5798 33.9181 65.5798 33.4659C65.5798 33.1252 65.6731 32.8248 65.8598 32.5646C66.0464 32.2982 66.3077 32.0938 66.6437 31.9513C66.9796 31.8026 67.3653 31.7283 67.8008 31.7283C68.1555 31.7283 68.4759 31.7562 68.7621 31.8119C69.0482 31.8677 69.3282 31.9575 69.602 32.0814V32.8991C69.0607 32.6575 68.5132 32.5367 67.9595 32.5367C67.5116 32.5367 67.1694 32.6172 66.933 32.7783C66.6965 32.9394 66.5783 33.1686 66.5783 33.4659C66.5783 33.6703 66.6281 33.8438 66.7277 33.9863C66.8334 34.1225 66.9858 34.2464 67.1849 34.3579C67.3902 34.4632 67.692 34.5964 68.0901 34.7575C68.5319 34.9371 68.8803 35.1075 69.1353 35.2685C69.3904 35.4296 69.5833 35.6278 69.7139 35.8632C69.8508 36.0924 69.9192 36.3805 69.9192 36.7274C69.9192 37.2911 69.7171 37.7278 69.3127 38.0375C68.9083 38.3473 68.311 38.5021 67.5209 38.5021Z" fill="#27AE60"/>
<path d="M73.1659 38.5021C72.662 38.5021 72.2171 38.4092 71.8314 38.2234C71.4519 38.0314 71.1533 37.7588 70.9355 37.4057C70.724 37.0464 70.6182 36.6252 70.6182 36.142C70.6182 35.665 70.724 35.2469 70.9355 34.8876C71.147 34.5283 71.4457 34.2526 71.8314 34.0606C72.2171 33.8624 72.662 33.7633 73.1659 33.7633C73.6698 33.7633 74.1147 33.8624 74.5004 34.0606C74.8861 34.2526 75.1847 34.5283 75.3963 34.8876C75.614 35.2469 75.7229 35.665 75.7229 36.142C75.7229 36.6252 75.614 37.0464 75.3963 37.4057C75.1847 37.7588 74.8861 38.0314 74.5004 38.2234C74.1147 38.4092 73.6698 38.5021 73.1659 38.5021ZM73.1659 37.7588C73.6512 37.7588 74.0369 37.6101 74.3231 37.3128C74.6093 37.0154 74.7524 36.6252 74.7524 36.142C74.7524 35.6402 74.6093 35.2438 74.3231 34.9526C74.0369 34.6615 73.6512 34.5159 73.1659 34.5159C72.6806 34.5159 72.2949 34.6615 72.0087 34.9526C71.7225 35.2438 71.5794 35.6402 71.5794 36.142C71.5794 36.6252 71.7225 37.0154 72.0087 37.3128C72.2949 37.6101 72.6806 37.7588 73.1659 37.7588Z" fill="#27AE60"/>
<path d="M76.7267 34.6274H76.0454V33.9026H76.7267V33.0292C76.7267 32.515 76.8729 32.1248 77.1653 31.8584C77.4577 31.5858 77.8497 31.4496 78.3412 31.4496C78.5962 31.4496 78.8358 31.4867 79.0597 31.5611V32.3416C78.8855 32.2611 78.7051 32.2208 78.5185 32.2208C78.2261 32.2208 78.0114 32.292 77.8745 32.4345C77.7377 32.5708 77.6692 32.7876 77.6692 33.0849V33.9026H78.7891V34.6274H77.6692V38.3628H76.7267V34.6274Z" fill="#27AE60"/>
<path d="M81.107 38.5021C80.6529 38.5021 80.3014 38.3721 80.0525 38.1119C79.8099 37.8517 79.6886 37.4831 79.6886 37.0061V34.6274H79.0073V33.9026H79.6886V32.5646H80.6404V33.9026H81.7416V34.6274H80.6404V36.9411C80.6404 37.2384 80.6964 37.4491 80.8084 37.573C80.9266 37.6968 81.1381 37.7588 81.443 37.7588C81.6234 37.7588 81.8038 37.7185 81.9843 37.638V38.3813C81.7478 38.4619 81.4554 38.5021 81.107 38.5021Z" fill="#27AE60"/>
<path d="M82.4474 33.9026H83.4087L84.4165 37.2106L85.4151 33.9026H86.2643L87.2628 37.2106L88.2707 33.9026H89.2412L87.7854 38.3628H86.8802L85.8443 35.0362L84.8085 38.3628H83.8939L82.4474 33.9026Z" fill="#27AE60"/>
<path d="M91.3659 38.5021C90.8247 38.5021 90.3892 38.3659 90.0594 38.0933C89.7359 37.8145 89.5741 37.4398 89.5741 36.969C89.5741 36.4734 89.7297 36.0924 90.0408 35.8261C90.358 35.5535 90.806 35.4172 91.3846 35.4172C92.0005 35.4172 92.5231 35.5411 92.9524 35.7889V35.5566C92.9524 35.2035 92.8435 34.9433 92.6258 34.7761C92.4142 34.6026 92.0783 34.5159 91.6179 34.5159C91.3441 34.5159 91.0766 34.5438 90.8153 34.5995C90.5602 34.6491 90.33 34.7203 90.1247 34.8132V34.0513C90.3114 33.9646 90.554 33.8964 90.8526 33.8469C91.1513 33.7911 91.4406 33.7633 91.7205 33.7633C92.4609 33.7633 93.0084 33.9274 93.363 34.2557C93.7238 34.5778 93.9043 35.027 93.9043 35.6031V38.3628H93.0177V37.861C92.8248 38.0716 92.5946 38.2327 92.3271 38.3442C92.0658 38.4495 91.7454 38.5021 91.3659 38.5021ZM91.5992 37.7867C91.8978 37.7867 92.1685 37.7278 92.4111 37.6101C92.6538 37.4924 92.8342 37.3283 92.9524 37.1176V36.5137C92.548 36.2535 92.0969 36.1234 91.5992 36.1234C91.2384 36.1234 90.9677 36.1946 90.7873 36.3371C90.6131 36.4734 90.526 36.684 90.526 36.969C90.526 37.5141 90.8838 37.7867 91.5992 37.7867Z" fill="#27AE60"/>
<path d="M95.0739 33.9026H95.9885V34.7017C96.1751 34.4292 96.4364 34.2278 96.7724 34.0978C97.1145 33.9677 97.5096 33.9026 97.9576 33.9026V34.6367C97.4785 34.6367 97.0679 34.7141 96.7257 34.869C96.3835 35.0239 96.1471 35.2685 96.0165 35.6031V38.3628H95.0739V33.9026Z" fill="#27AE60"/>
<path d="M100.982 38.5021C100.155 38.5021 99.5049 38.2977 99.0321 37.8889C98.5655 37.4738 98.3322 36.8915 98.3322 36.142C98.3322 35.411 98.5406 34.8318 98.9574 34.4044C99.3805 33.977 99.9808 33.7633 100.759 33.7633C101.275 33.7633 101.713 33.8624 102.074 34.0606C102.435 34.2526 102.706 34.5221 102.886 34.869C103.073 35.2097 103.166 35.6 103.166 36.0398V36.5044H99.228C99.2591 36.9256 99.4365 37.2415 99.76 37.4522C100.09 37.6566 100.535 37.7588 101.094 37.7588C101.381 37.7588 101.67 37.734 101.962 37.6845C102.255 37.6287 102.513 37.5575 102.737 37.4707V38.2234C102.538 38.3039 102.273 38.369 101.944 38.4185C101.62 38.4743 101.3 38.5021 100.982 38.5021ZM102.28 35.8446C102.267 35.4234 102.127 35.0982 101.86 34.869C101.598 34.6336 101.225 34.5159 100.74 34.5159C100.267 34.5159 99.9 34.6367 99.6387 34.8783C99.3774 35.1199 99.2405 35.442 99.228 35.8446H102.28Z" fill="#27AE60"/>
<path d="M109.302 32.6668H107.277V31.8677H112.289V32.6668H110.263V38.3628H109.302V32.6668Z" fill="#27AE60"/>
<path d="M114.516 38.5021C113.688 38.5021 113.038 38.2977 112.566 37.8889C112.099 37.4738 111.866 36.8915 111.866 36.142C111.866 35.411 112.074 34.8318 112.491 34.4044C112.914 33.977 113.514 33.7633 114.292 33.7633C114.808 33.7633 115.247 33.8624 115.608 34.0606C115.969 34.2526 116.239 34.5221 116.42 34.869C116.606 35.2097 116.7 35.6 116.7 36.0398V36.5044H112.761C112.793 36.9256 112.97 37.2415 113.293 37.4522C113.623 37.6566 114.068 37.7588 114.628 37.7588C114.914 37.7588 115.203 37.734 115.496 37.6845C115.788 37.6287 116.046 37.5575 116.27 37.4707V38.2234C116.071 38.3039 115.807 38.369 115.477 38.4185C115.154 38.4743 114.833 38.5021 114.516 38.5021ZM115.813 35.8446C115.801 35.4234 115.661 35.0982 115.393 34.869C115.132 34.6336 114.759 34.5159 114.273 34.5159C113.8 34.5159 113.433 34.6367 113.172 34.8783C112.911 35.1199 112.774 35.442 112.761 35.8446H115.813Z" fill="#27AE60"/>
<path d="M120.091 38.5021C119.593 38.5021 119.151 38.4092 118.766 38.2234C118.38 38.0375 118.078 37.7681 117.861 37.415C117.649 37.0557 117.543 36.6314 117.543 36.142C117.543 35.6526 117.649 35.2314 117.861 34.8783C118.078 34.519 118.38 34.2433 118.766 34.0513C119.158 33.8593 119.606 33.7633 120.11 33.7633C120.794 33.7633 121.341 33.8964 121.752 34.1628V34.934C121.348 34.6553 120.831 34.5159 120.203 34.5159C119.693 34.5159 119.279 34.6553 118.962 34.934C118.651 35.2066 118.495 35.6093 118.495 36.142C118.495 36.6747 118.651 37.0774 118.962 37.3499C119.273 37.6225 119.68 37.7588 120.184 37.7588C120.813 37.7588 121.354 37.6101 121.808 37.3128V38.0747C121.59 38.2234 121.341 38.3318 121.061 38.3999C120.788 38.4681 120.464 38.5021 120.091 38.5021Z" fill="#27AE60"/>
<path d="M122.833 31.496H123.776V34.5159C124.205 34.0141 124.778 33.7633 125.493 33.7633C126.09 33.7633 126.535 33.9212 126.828 34.2371C127.12 34.5531 127.266 34.9774 127.266 35.5101V38.3628H126.324V35.6031C126.324 34.8783 125.975 34.5159 125.278 34.5159C124.98 34.5159 124.7 34.5871 124.439 34.7296C124.183 34.8659 123.963 35.0765 123.776 35.3615V38.3628H122.833V31.496Z" fill="#27AE60"/>
<path d="M128.429 33.9026H129.344V34.5438C129.555 34.2774 129.813 34.0823 130.118 33.9584C130.429 33.8283 130.753 33.7633 131.089 33.7633C131.686 33.7633 132.131 33.9212 132.423 34.2371C132.716 34.5531 132.862 34.9774 132.862 35.5101V38.3628H131.919V35.6031C131.919 34.8783 131.571 34.5159 130.874 34.5159C130.575 34.5159 130.295 34.5871 130.034 34.7296C129.779 34.8659 129.558 35.0765 129.372 35.3615V38.3628H128.429V33.9026Z" fill="#27AE60"/>
<path d="M136.249 38.5021C135.745 38.5021 135.3 38.4092 134.915 38.2234C134.535 38.0314 134.236 37.7588 134.019 37.4057C133.807 37.0464 133.701 36.6252 133.701 36.142C133.701 35.665 133.807 35.2469 134.019 34.8876C134.23 34.5283 134.529 34.2526 134.915 34.0606C135.3 33.8624 135.745 33.7633 136.249 33.7633C136.753 33.7633 137.198 33.8624 137.584 34.0606C137.969 34.2526 138.268 34.5283 138.479 34.8876C138.697 35.2469 138.806 35.665 138.806 36.142C138.806 36.6252 138.697 37.0464 138.479 37.4057C138.268 37.7588 137.969 38.0314 137.584 38.2234C137.198 38.4092 136.753 38.5021 136.249 38.5021ZM136.249 37.7588C136.734 37.7588 137.12 37.6101 137.406 37.3128C137.692 37.0154 137.836 36.6252 137.836 36.142C137.836 35.6402 137.692 35.2438 137.406 34.9526C137.12 34.6615 136.734 34.5159 136.249 34.5159C135.764 34.5159 135.378 34.6615 135.092 34.9526C134.806 35.2438 134.663 35.6402 134.663 36.142C134.663 36.6252 134.806 37.0154 135.092 37.3128C135.378 37.6101 135.764 37.7588 136.249 37.7588Z" fill="#27AE60"/>
<path d="M139.83 31.496H140.773V38.3628H139.83V31.496Z" fill="#27AE60"/>
<path d="M144.351 38.5021C143.847 38.5021 143.402 38.4092 143.016 38.2234C142.637 38.0314 142.338 37.7588 142.121 37.4057C141.909 37.0464 141.803 36.6252 141.803 36.142C141.803 35.665 141.909 35.2469 142.121 34.8876C142.332 34.5283 142.631 34.2526 143.016 34.0606C143.402 33.8624 143.847 33.7633 144.351 33.7633C144.855 33.7633 145.3 33.8624 145.685 34.0606C146.071 34.2526 146.37 34.5283 146.581 34.8876C146.799 35.2469 146.908 35.665 146.908 36.142C146.908 36.6252 146.799 37.0464 146.581 37.4057C146.37 37.7588 146.071 38.0314 145.685 38.2234C145.3 38.4092 144.855 38.5021 144.351 38.5021ZM144.351 37.7588C144.836 37.7588 145.222 37.6101 145.508 37.3128C145.794 37.0154 145.937 36.6252 145.937 36.142C145.937 35.6402 145.794 35.2438 145.508 34.9526C145.222 34.6615 144.836 34.5159 144.351 34.5159C143.866 34.5159 143.48 34.6615 143.194 34.9526C142.908 35.2438 142.764 35.6402 142.764 36.142C142.764 36.6252 142.908 37.0154 143.194 37.3128C143.48 37.6101 143.866 37.7588 144.351 37.7588Z" fill="#27AE60"/>
<path d="M150.274 40.4999C149.969 40.4999 149.671 40.4751 149.378 40.4256C149.092 40.376 148.849 40.3048 148.65 40.2119V39.4406C149.117 39.6512 149.658 39.7566 150.274 39.7566C150.853 39.7566 151.273 39.6296 151.534 39.3756C151.802 39.1278 151.935 38.7499 151.935 38.242V37.7681C151.525 38.2575 150.921 38.5021 150.125 38.5021C149.671 38.5021 149.263 38.403 148.902 38.2048C148.542 38.0066 148.258 37.7278 148.053 37.3685C147.848 37.0092 147.745 36.5973 147.745 36.1327C147.745 35.6619 147.845 35.25 148.044 34.8969C148.249 34.5376 148.529 34.2588 148.884 34.0606C149.245 33.8624 149.649 33.7633 150.097 33.7633C150.514 33.7633 150.865 33.8252 151.151 33.9491C151.444 34.0668 151.714 34.265 151.963 34.5438V33.9026H152.878V38.1398C152.878 38.9017 152.663 39.484 152.234 39.8866C151.811 40.2955 151.158 40.4999 150.274 40.4999ZM150.312 37.7588C150.697 37.7588 151.036 37.6566 151.329 37.4522C151.627 37.2477 151.83 36.9752 151.935 36.6345V35.6309C151.817 35.284 151.612 35.0115 151.319 34.8132C151.033 34.615 150.697 34.5159 150.312 34.5159C150.007 34.5159 149.73 34.584 149.481 34.7203C149.238 34.8504 149.045 35.0393 148.902 35.2871C148.765 35.5349 148.697 35.8168 148.697 36.1327C148.697 36.4548 148.765 36.7398 148.902 36.9876C149.045 37.2291 149.238 37.4181 149.481 37.5544C149.73 37.6906 150.007 37.7588 150.312 37.7588Z" fill="#27AE60"/>
<path d="M154.716 40.2026C154.38 40.2026 154.1 40.1685 153.876 40.1004V39.3663C154.038 39.4282 154.237 39.4592 154.474 39.4592C154.691 39.4592 154.862 39.4035 154.987 39.292C155.111 39.1867 155.223 39.0132 155.323 38.7716L155.538 38.2513L153.578 33.9026H154.548L156.041 37.3314L157.432 33.9026H158.402L156.387 38.8645C156.2 39.3291 155.976 39.6667 155.715 39.8774C155.46 40.0942 155.127 40.2026 154.716 40.2026Z" fill="#27AE60"/>
<path d="M165.607 38.4557C165.234 38.4557 164.864 38.4216 164.497 38.3535C164.136 38.2915 163.84 38.2048 163.61 38.0933V37.2385C164.208 37.5172 164.851 37.6566 165.542 37.6566C166.513 37.6566 166.998 37.3314 166.998 36.6809C166.998 36.4579 166.945 36.2783 166.839 36.142C166.733 36.0057 166.581 35.888 166.382 35.7889C166.183 35.6836 165.859 35.5411 165.411 35.3615C164.795 35.1137 164.351 34.8411 164.077 34.5438C163.803 34.2464 163.666 33.8717 163.666 33.4195C163.666 33.0788 163.76 32.7783 163.946 32.5181C164.133 32.2518 164.394 32.0474 164.73 31.9049C165.066 31.7562 165.452 31.6819 165.887 31.6819C166.242 31.6819 166.562 31.7097 166.849 31.7655C167.135 31.8212 167.415 31.9111 167.688 32.035V32.8527C167.147 32.6111 166.6 32.4903 166.046 32.4903C165.598 32.4903 165.256 32.5708 165.019 32.7319C164.783 32.8929 164.665 33.1221 164.665 33.4195C164.665 33.6239 164.715 33.7973 164.814 33.9398C164.92 34.0761 165.072 34.2 165.271 34.3115C165.477 34.4168 165.778 34.55 166.177 34.711C166.618 34.8907 166.967 35.061 167.222 35.2221C167.477 35.3832 167.67 35.5814 167.8 35.8168C167.937 36.046 168.006 36.334 168.006 36.6809C168.006 37.2446 167.804 37.6814 167.399 37.9911C166.995 38.3008 166.397 38.4557 165.607 38.4557Z" fill="white"/>
<path d="M171.252 38.4557C170.748 38.4557 170.304 38.3628 169.918 38.1769C169.538 37.9849 169.24 37.7123 169.022 37.3592C168.81 37 168.705 36.5787 168.705 36.0955C168.705 35.6186 168.81 35.2004 169.022 34.8411C169.234 34.4818 169.532 34.2062 169.918 34.0141C170.304 33.8159 170.748 33.7168 171.252 33.7168C171.756 33.7168 172.201 33.8159 172.587 34.0141C172.973 34.2062 173.271 34.4818 173.483 34.8411C173.701 35.2004 173.809 35.6186 173.809 36.0955C173.809 36.5787 173.701 37 173.483 37.3592C173.271 37.7123 172.973 37.9849 172.587 38.1769C172.201 38.3628 171.756 38.4557 171.252 38.4557ZM171.252 37.7123C171.738 37.7123 172.123 37.5637 172.41 37.2663C172.696 36.969 172.839 36.5787 172.839 36.0955C172.839 35.5938 172.696 35.1973 172.41 34.9062C172.123 34.615 171.738 34.4695 171.252 34.4695C170.767 34.4695 170.381 34.615 170.095 34.9062C169.809 35.1973 169.666 35.5938 169.666 36.0955C169.666 36.5787 169.809 36.969 170.095 37.2663C170.381 37.5637 170.767 37.7123 171.252 37.7123Z" fill="white"/>
<path d="M174.833 31.4496H175.776V38.3163H174.833V31.4496Z" fill="white"/>
<path d="M178.776 38.4557C178.172 38.4557 177.715 38.2946 177.404 37.9725C177.099 37.6504 176.947 37.2199 176.947 36.6809V33.8562H177.889V36.6438C177.889 37.3562 178.247 37.7123 178.962 37.7123C179.591 37.7123 180.082 37.4305 180.437 36.8668V33.8562H181.379V38.3163H180.465V37.6845C180.253 37.9508 180.001 38.146 179.709 38.2699C179.423 38.3938 179.112 38.4557 178.776 38.4557Z" fill="white"/>
<path d="M184.315 38.4557C183.861 38.4557 183.51 38.3256 183.261 38.0654C183.018 37.8053 182.897 37.4367 182.897 36.9597V34.581H182.216V33.8562H182.897V32.5181H183.849V33.8562H184.95V34.581H183.849V36.8947C183.849 37.192 183.905 37.4026 184.017 37.5265C184.135 37.6504 184.346 37.7123 184.651 37.7123C184.832 37.7123 185.012 37.6721 185.192 37.5915V38.3349C184.956 38.4154 184.664 38.4557 184.315 38.4557Z" fill="white"/>
<path d="M186.63 32.9827C186.474 32.9827 186.344 32.9301 186.238 32.8248C186.132 32.7195 186.079 32.5894 186.079 32.4345C186.079 32.2797 186.132 32.1496 186.238 32.0443C186.344 31.9389 186.474 31.8863 186.63 31.8863C186.792 31.8863 186.925 31.9389 187.031 32.0443C187.143 32.1496 187.199 32.2797 187.199 32.4345C187.199 32.5894 187.143 32.7195 187.031 32.8248C186.925 32.9301 186.792 32.9827 186.63 32.9827ZM186.154 33.8562H187.115V38.3163H186.154V33.8562Z" fill="white"/>
<path d="M190.773 38.4557C190.269 38.4557 189.825 38.3628 189.439 38.1769C189.059 37.9849 188.761 37.7123 188.543 37.3592C188.331 37 188.226 36.5787 188.226 36.0955C188.226 35.6186 188.331 35.2004 188.543 34.8411C188.754 34.4818 189.053 34.2062 189.439 34.0141C189.825 33.8159 190.269 33.7168 190.773 33.7168C191.277 33.7168 191.722 33.8159 192.108 34.0141C192.494 34.2062 192.792 34.4818 193.004 34.8411C193.221 35.2004 193.33 35.6186 193.33 36.0955C193.33 36.5787 193.221 37 193.004 37.3592C192.792 37.7123 192.494 37.9849 192.108 38.1769C191.722 38.3628 191.277 38.4557 190.773 38.4557ZM190.773 37.7123C191.259 37.7123 191.644 37.5637 191.931 37.2663C192.217 36.969 192.36 36.5787 192.36 36.0955C192.36 35.5938 192.217 35.1973 191.931 34.9062C191.644 34.615 191.259 34.4695 190.773 34.4695C190.288 34.4695 189.902 34.615 189.616 34.9062C189.33 35.1973 189.187 35.5938 189.187 36.0955C189.187 36.5787 189.33 36.969 189.616 37.2663C189.902 37.5637 190.288 37.7123 190.773 37.7123Z" fill="white"/>
<path d="M194.354 33.8562H195.269V34.4973C195.48 34.231 195.739 34.0358 196.043 33.9119C196.354 33.7818 196.678 33.7168 197.014 33.7168C197.611 33.7168 198.056 33.8748 198.348 34.1907C198.641 34.5066 198.787 34.931 198.787 35.4637V38.3163H197.844V35.5566C197.844 34.8318 197.496 34.4695 196.799 34.4695C196.501 34.4695 196.221 34.5407 195.959 34.6832C195.704 34.8194 195.483 35.0301 195.297 35.315V38.3163H194.354V33.8562Z" fill="white"/>
<path d="M201.602 38.4557C201.291 38.4557 200.961 38.4154 200.612 38.3349C200.264 38.2606 199.99 38.1584 199.791 38.0283V37.2292C200.034 37.3716 200.314 37.4893 200.631 37.5823C200.948 37.669 201.256 37.7123 201.555 37.7123C201.891 37.7123 202.137 37.6721 202.292 37.5915C202.448 37.511 202.526 37.3809 202.526 37.2013C202.526 37.065 202.488 36.9566 202.414 36.8761C202.345 36.7893 202.224 36.7119 202.05 36.6438C201.882 36.5756 201.627 36.4951 201.284 36.4022C200.917 36.2969 200.625 36.1916 200.407 36.0863C200.196 35.9747 200.034 35.8354 199.922 35.6681C199.816 35.5009 199.763 35.284 199.763 35.0177C199.763 34.5902 199.931 34.2681 200.267 34.0513C200.609 33.8283 201.067 33.7168 201.639 33.7168C201.938 33.7168 202.23 33.7447 202.516 33.8004C202.802 33.8562 203.033 33.9336 203.207 34.0327V34.8133C203.026 34.7079 202.802 34.6243 202.535 34.5624C202.274 34.5004 202.006 34.4695 201.732 34.4695C201.403 34.4695 201.151 34.5097 200.976 34.5902C200.802 34.6708 200.715 34.8133 200.715 35.0177C200.715 35.1478 200.752 35.2531 200.827 35.3336C200.902 35.4141 201.02 35.4854 201.182 35.5473C201.35 35.6031 201.614 35.6774 201.975 35.7703C202.541 35.9252 202.933 36.1079 203.151 36.3186C203.375 36.5292 203.487 36.8203 203.487 37.192C203.487 37.5761 203.328 37.8827 203.011 38.1119C202.694 38.3411 202.224 38.4557 201.602 38.4557Z" fill="white"/>
<path d="M211.236 38.4557C210.564 38.4557 209.967 38.3163 209.444 38.0376C208.922 37.7588 208.514 37.3654 208.222 36.8575C207.929 36.3433 207.783 35.7486 207.783 35.0734C207.783 34.3982 207.929 33.8035 208.222 33.2894C208.514 32.7752 208.922 32.3788 209.444 32.1C209.967 31.8212 210.564 31.6819 211.236 31.6819C212.132 31.6819 212.882 31.908 213.485 32.3602V33.2708C212.944 32.7938 212.222 32.5553 211.32 32.5553C210.816 32.5553 210.368 32.6575 209.976 32.8619C209.59 33.0664 209.289 33.3606 209.071 33.7447C208.853 34.1226 208.744 34.5655 208.744 35.0734C208.744 35.5814 208.853 36.0274 209.071 36.4115C209.295 36.7955 209.6 37.0898 209.985 37.2942C210.377 37.4986 210.822 37.6008 211.32 37.6008C211.78 37.6008 212.191 37.542 212.552 37.4243C212.919 37.3004 213.258 37.1053 213.569 36.8389V37.7588C213.009 38.2234 212.231 38.4557 211.236 38.4557Z" fill="white"/>
<path d="M216.719 38.4557C216.215 38.4557 215.771 38.3628 215.385 38.1769C215.005 37.9849 214.707 37.7123 214.489 37.3592C214.277 37 214.172 36.5787 214.172 36.0955C214.172 35.6186 214.277 35.2004 214.489 34.8411C214.7 34.4818 214.999 34.2062 215.385 34.0141C215.771 33.8159 216.215 33.7168 216.719 33.7168C217.223 33.7168 217.668 33.8159 218.054 34.0141C218.44 34.2062 218.738 34.4818 218.95 34.8411C219.167 35.2004 219.276 35.6186 219.276 36.0955C219.276 36.5787 219.167 37 218.95 37.3592C218.738 37.7123 218.44 37.9849 218.054 38.1769C217.668 38.3628 217.223 38.4557 216.719 38.4557ZM216.719 37.7123C217.205 37.7123 217.59 37.5637 217.876 37.2663C218.163 36.969 218.306 36.5787 218.306 36.0955C218.306 35.5938 218.163 35.1973 217.876 34.9062C217.59 34.615 217.205 34.4695 216.719 34.4695C216.234 34.4695 215.848 34.615 215.562 34.9062C215.276 35.1973 215.133 35.5938 215.133 36.0955C215.133 36.5787 215.276 36.969 215.562 37.2663C215.848 37.5637 216.234 37.7123 216.719 37.7123Z" fill="white"/>
<path d="M220.3 33.8562H221.196V34.4973C221.408 34.2372 221.647 34.042 221.915 33.9119C222.182 33.7818 222.459 33.7168 222.745 33.7168C223.106 33.7168 223.392 33.7788 223.604 33.9026C223.815 34.0203 223.971 34.2031 224.07 34.4509C224.269 34.2093 224.512 34.0265 224.798 33.9026C225.091 33.7788 225.383 33.7168 225.676 33.7168C226.223 33.7168 226.618 33.8562 226.861 34.1349C227.103 34.4075 227.225 34.8133 227.225 35.3522V38.3163H226.31V35.473C226.31 35.1075 226.242 34.8504 226.105 34.7018C225.968 34.5469 225.735 34.4695 225.405 34.4695C224.932 34.4695 224.546 34.6739 224.248 35.0827C224.26 35.1756 224.266 35.3274 224.266 35.538V38.3163H223.352V35.473C223.352 35.1075 223.29 34.8504 223.165 34.7018C223.041 34.5469 222.817 34.4695 222.493 34.4695C222.02 34.4695 221.597 34.7358 221.224 35.2686V38.3163H220.3V33.8562Z" fill="white"/>
<path d="M228.393 33.8562H229.307V34.5159C229.768 33.9832 230.39 33.7168 231.174 33.7168C231.622 33.7168 232.023 33.8159 232.378 34.0141C232.739 34.2124 233.019 34.4911 233.218 34.8504C233.423 35.2035 233.526 35.6155 233.526 36.0863C233.526 36.5508 233.423 36.9628 233.218 37.3221C233.019 37.6814 232.742 37.9601 232.387 38.1584C232.032 38.3566 231.628 38.4557 231.174 38.4557C230.801 38.4557 230.452 38.3938 230.129 38.2699C229.805 38.146 229.541 37.9632 229.335 37.7216V40.3513H228.393V33.8562ZM230.959 37.7123C231.264 37.7123 231.538 37.6473 231.78 37.5172C232.029 37.3809 232.222 37.1889 232.359 36.9411C232.502 36.6933 232.574 36.4084 232.574 36.0863C232.574 35.7641 232.502 35.4823 232.359 35.2407C232.222 34.9929 232.029 34.804 231.78 34.6739C231.538 34.5376 231.264 34.4695 230.959 34.4695C230.58 34.4695 230.244 34.5686 229.951 34.7668C229.665 34.965 229.46 35.2376 229.335 35.5845V36.588C229.441 36.9287 229.643 37.2013 229.942 37.4057C230.241 37.6101 230.58 37.7123 230.959 37.7123Z" fill="white"/>
<path d="M235.922 38.4557C235.381 38.4557 234.945 38.3194 234.615 38.0469C234.292 37.7681 234.13 37.3933 234.13 36.9225C234.13 36.427 234.286 36.046 234.597 35.7796C234.914 35.5071 235.362 35.3708 235.94 35.3708C236.556 35.3708 237.079 35.4947 237.508 35.7424V35.5102C237.508 35.1571 237.399 34.8969 237.182 34.7296C236.97 34.5562 236.634 34.4695 236.174 34.4695C235.9 34.4695 235.632 34.4973 235.371 34.5531C235.116 34.6026 234.886 34.6739 234.681 34.7668V34.0049C234.867 33.9181 235.11 33.85 235.409 33.8004C235.707 33.7447 235.996 33.7168 236.276 33.7168C237.017 33.7168 237.564 33.881 237.919 34.2093C238.28 34.5314 238.46 34.9805 238.46 35.5566V38.3163H237.574V37.8146C237.381 38.0252 237.151 38.1862 236.883 38.2977C236.622 38.403 236.301 38.4557 235.922 38.4557ZM236.155 37.7402C236.454 37.7402 236.724 37.6814 236.967 37.5637C237.21 37.446 237.39 37.2818 237.508 37.0712V36.4672C237.104 36.207 236.653 36.077 236.155 36.077C235.794 36.077 235.524 36.1482 235.343 36.2907C235.169 36.427 235.082 36.6376 235.082 36.9225C235.082 37.4677 235.44 37.7402 236.155 37.7402Z" fill="white"/>
<path d="M239.63 33.8562H240.544V34.4973C240.756 34.231 241.014 34.0358 241.319 33.9119C241.63 33.7818 241.953 33.7168 242.289 33.7168C242.887 33.7168 243.332 33.8748 243.624 34.1907C243.916 34.5066 244.063 34.931 244.063 35.4637V38.3163H243.12V35.5566C243.12 34.8318 242.772 34.4695 242.075 34.4695C241.776 34.4695 241.496 34.5407 241.235 34.6832C240.98 34.8194 240.759 35.0301 240.572 35.315V38.3163H239.63V33.8562Z" fill="white"/>
<path d="M245.758 40.1561C245.422 40.1561 245.142 40.1221 244.918 40.0539V39.3198C245.08 39.3818 245.279 39.4128 245.515 39.4128C245.733 39.4128 245.904 39.357 246.029 39.2455C246.153 39.1402 246.265 38.9668 246.365 38.7252L246.579 38.2048L244.62 33.8562H245.59L247.083 37.2849L248.474 33.8562H249.444L247.429 38.8181C247.242 39.2827 247.018 39.6203 246.757 39.8309C246.502 40.0477 246.169 40.1561 245.758 40.1561Z" fill="white"/>
<path d="M12.1534 40.5L0.555542 20.5003L12.1534 0.5H31.2557L27.1624 7.55966H16.2468L10.789 16.9721H21.7049L17.6115 24.0313H10.7892L16.2468 33.4434H27.1631L31.2565 40.5H12.1534Z" fill="#23AE5E"/>
<path d="M21.7043 16.9721L18.2936 11.0891L25.1158 11.0891L21.7043 16.9721Z" fill="#27AE60"/>
<path d="M33.9841 24.0262L43.5352 40.4999H35.3491L29.8912 31.0906L33.9841 24.0262Z" fill="#27AE60"/>
<path d="M35.3492 0.500076L43.5356 0.500095L26.4801 29.9143H18.2936L35.3492 0.500076Z" fill="#27AE60"/>
<path d="M45.5824 36.9729L41.493 29.9092L46.9471 20.5011L41.4888 11.091L45.5824 4.02904L55.1337 20.5012L45.5824 36.9729Z" fill="#27AE60"/>
</svg>
